<svg xmlns="http://www.w3.org/2000/svg" width="24" height="24"><g fill-rule="nonzero" fill="none"><path fill="#3C58BF" d="M8.8 15.114l1.219-6.857h1.905l-1.181 6.857z"/><path fill="#293688" d="M8.8 15.114l1.562-6.857h1.562l-1.181 6.857z"/><path fill="#3C58BF" d="M17.638 8.333c-.38-.152-.99-.304-1.752-.304-1.905 0-3.276.952-3.276 2.323 0 1.029.952 1.562 1.714 1.905.762.343.99.572.99.876 0 .457-.61.686-1.143.686-.761 0-1.18-.114-1.828-.38l-.267-.115-.266 1.562c.457.19 1.295.38 2.171.38 2.019 0 3.352-.952 3.352-2.4 0-.8-.495-1.409-1.638-1.904-.685-.343-1.105-.533-1.105-.876 0-.305.343-.61 1.105-.61.648 0 1.105.114 1.448.267l.19.076.305-1.486z"/><path fill="#293688" d="M17.638 8.333c-.38-.152-.99-.304-1.752-.304-1.905 0-2.934.952-2.934 2.323 0 1.029.61 1.562 1.372 1.905.762.343.99.572.99.876 0 .457-.61.686-1.143.686-.761 0-1.18-.114-1.828-.38l-.267-.115-.266 1.562c.457.19 1.295.38 2.171.38 2.019 0 3.352-.952 3.352-2.4 0-.8-.495-1.409-1.638-1.904-.685-.343-1.105-.533-1.105-.876 0-.305.343-.61 1.105-.61.648 0 1.105.114 1.448.267l.19.076.305-1.486z"/><path fill="#3C58BF" d="M20.914 8.257c-.457 0-.8.038-.99.495l-2.857 6.362h2.057l.38-1.143h2.439l.228 1.143H24l-1.6-6.857h-1.486zm-.876 4.572c.114-.343.762-2.02.762-2.02s.152-.419.267-.685l.114.647s.38 1.715.457 2.096h-1.6v-.038z"/><path fill="#293688" d="M21.371 8.257c-.457 0-.8.038-.99.495l-3.314 6.362h2.057l.38-1.143h2.439l.228 1.143H24l-1.6-6.857h-1.029zm-1.333 4.573c.152-.381.762-2.02.762-2.02s.152-.419.267-.685l.114.647s.38 1.715.457 2.096h-1.6v-.038z"/><path fill="#3C58BF" d="M5.295 13.057l-.19-.99c-.343-1.143-1.448-2.4-2.667-3.01l1.714 6.095H6.21l3.085-6.857H7.238l-1.943 4.762z"/><path fill="#293688" d="M5.295 13.057l-.19-.99c-.343-1.143-1.448-2.4-2.667-3.01l1.714 6.095H6.21l3.085-6.857H7.62l-2.325 4.762z"/><path fill="#FFBC00" d="M0 8.257l.343.076c2.438.572 4.114 2.02 4.762 3.734l-.686-3.238c-.114-.459-.457-.572-.876-.572H0z"/><path fill="#F7981D" d="M0 8.257c2.438.573 4.457 2.057 5.105 3.773l-.648-2.705a.93.93 0 00-.914-.725L0 8.257z"/><path fill="#ED7C00" d="M0 8.257c2.438.573 4.457 2.057 5.105 3.773l-.457-1.486c-.115-.457-.267-.914-.8-1.105L0 8.258z"/><path d="M7.2 12.829l-1.295-1.296-.61 1.448-.152-.952c-.343-1.143-1.448-2.4-2.667-3.01l1.714 6.095h2.057l.953-2.285zm3.543 2.285l-1.638-1.676-.305 1.676zm4.381-2.362c.152.153.228.267.19.42 0 .457-.61.685-1.143.685-.762 0-1.18-.114-1.828-.38l-.267-.116-.267 1.562c.457.19 1.296.38 2.172.38 1.219 0 2.21-.342 2.78-.952l-1.637-1.6zm2.209 2.362h1.79l.382-1.143h2.438l.228 1.143H24l-.648-2.78-2.286-2.21.115.61s.38 1.714.457 2.095h-1.6c.152-.381.762-2.02.762-2.02s.152-.419.266-.685" fill="#051244"/></g></svg>