<svg xmlns="http://www.w3.org/2000/svg" width="24" height="24"><g fill-rule="nonzero" fill="none"><path fill="#FFB600" d="M24 12.238c0 3.962-3.2 7.2-7.2 7.2-3.962 0-7.2-3.238-7.2-7.2s3.2-7.2 7.162-7.2c4.038 0 7.238 3.238 7.238 7.2z"/><path fill="#F7981D" d="M16.8 5.038c3.962 0 7.2 3.238 7.2 7.2s-3.2 7.2-7.2 7.2c-3.962 0-7.2-3.238-7.2-7.2"/><path fill="#FF8500" d="M16.8 5.038c3.962 0 7.2 3.238 7.2 7.2s-3.2 7.2-7.2 7.2"/><path fill="#FF5050" d="M7.124 5.038C3.2 5.076 0 8.276 0 12.238s3.2 7.2 7.2 7.2c1.867 0 3.543-.724 4.838-1.867.267-.228.495-.495.724-.761h-1.486a9.228 9.228 0 01-.533-.724h2.552c.153-.229.305-.496.42-.762h-3.391a4.553 4.553 0 01-.305-.762h3.962c.229-.724.38-1.486.38-2.286 0-.533-.075-1.028-.151-1.524H9.79c.039-.266.115-.495.191-.762h3.962a4.459 4.459 0 00-.305-.761h-3.352c.114-.267.266-.496.419-.762h2.552a3.604 3.604 0 00-.571-.762h-1.41c.229-.267.457-.495.724-.724C10.743 5.8 9.029 5.114 7.162 5.114c0-.076 0-.076-.038-.076z"/><path fill="#E52836" d="M0 12.238c0 3.962 3.2 7.2 7.2 7.2 1.867 0 3.543-.724 4.838-1.867.267-.228.495-.495.724-.761h-1.486a9.228 9.228 0 01-.533-.724h2.552c.153-.229.305-.496.42-.762h-3.391a4.553 4.553 0 01-.305-.762h3.962c.229-.724.38-1.486.38-2.286 0-.533-.075-1.028-.151-1.524H9.79c.039-.266.115-.495.191-.762h3.962a4.459 4.459 0 00-.305-.761h-3.352c.114-.267.266-.496.419-.762h2.552a3.604 3.604 0 00-.571-.762h-1.41c.229-.267.457-.495.724-.724C10.743 5.8 9.029 5.114 7.162 5.114h-.038"/><path fill="#CB2026" d="M7.2 19.438c1.867 0 3.543-.724 4.838-1.867.267-.228.495-.495.724-.761h-1.486a9.228 9.228 0 01-.533-.724h2.552c.153-.229.305-.496.42-.762h-3.391a4.553 4.553 0 01-.305-.762h3.962c.229-.724.38-1.486.38-2.286 0-.533-.075-1.028-.151-1.524H9.79c.039-.266.115-.495.191-.762h3.962a4.459 4.459 0 00-.305-.761h-3.352c.114-.267.266-.496.419-.762h2.552a3.604 3.604 0 00-.571-.762h-1.41c.229-.267.457-.495.724-.724C10.743 5.8 9.029 5.114 7.162 5.114h-.038"/><path d="M9.753 14.066l.114-.647c-.038 0-.114.038-.19.038-.267 0-.305-.153-.267-.229l.228-1.333h.42l.114-.724h-.381l.076-.457h-.762s-.457 2.514-.457 2.819c0 .457.267.648.61.648.228 0 .419-.077.495-.115zm.266-1.219c0 1.067.724 1.334 1.334 1.334.571 0 .8-.115.8-.115l.152-.723s-.419.19-.8.19c-.838 0-.686-.61-.686-.61h1.562s.115-.495.115-.685c0-.495-.267-1.105-1.105-1.105-.8-.076-1.372.762-1.372 1.714zm1.334-1.104c.419 0 .343.495.343.533h-.839c0-.038.077-.533.496-.533zm4.838 2.323l.152-.838s-.38.19-.647.19c-.534 0-.762-.418-.762-.875 0-.915.457-1.41.99-1.41.381 0 .686.229.686.229l.114-.8s-.457-.19-.876-.19c-.876 0-1.752.761-1.752 2.209 0 .952.457 1.6 1.371 1.6.305 0 .724-.115.724-.115zM5.562 11.057c-.533 0-.914.152-.914.152l-.114.648s.343-.153.838-.153c.266 0 .495.039.495.267 0 .152-.038.19-.038.19h-.343c-.648 0-1.371.267-1.371 1.143 0 .686.457.839.723.839.534 0 .762-.343.8-.343l-.038.304h.686l.305-2.095c0-.914-.762-.952-1.029-.952zm.153 1.714c0 .114-.077.724-.534.724-.228 0-.304-.19-.304-.305 0-.19.114-.457.685-.457.115.038.153.038.153.038zm1.6 1.372c.19 0 1.142.038 1.142-.991 0-.952-.914-.762-.914-1.143 0-.19.153-.266.42-.266.114 0 .533.038.533.038l.114-.686s-.267-.076-.724-.076c-.571 0-1.143.228-1.143.99 0 .876.953.8.953 1.143 0 .229-.267.267-.458.267-.342 0-.685-.115-.685-.115l-.115.686c.039.076.229.153.877.153zm15.2-3.696l-.153 1.029s-.305-.381-.724-.381c-.685 0-1.295.838-1.295 1.828 0 .61.305 1.258.953 1.258.457 0 .723-.305.723-.305l-.038.267h.762l.572-3.658-.8-.038zm-.343 2.02c0 .418-.19.952-.61.952-.266 0-.419-.229-.419-.61 0-.61.267-.99.61-.99.266 0 .419.19.419.647zM1.41 14.104l.457-2.742.076 2.742h.534l.99-2.742-.419 2.742h.8l.609-3.657H3.2l-.762 2.248-.038-2.248H1.296l-.61 3.657zm11.809 0c.229-1.257.267-2.285.8-2.095.077-.495.19-.686.267-.876h-.152c-.343 0-.61.457-.61.457l.076-.419h-.723l-.496 2.972h.838v-.04zm4.724-3.047c-.533 0-.914.152-.914.152l-.114.648s.342-.153.838-.153c.266 0 .495.039.495.267 0 .152-.038.19-.038.19h-.343c-.648 0-1.371.267-1.371 1.143 0 .686.457.839.723.839.534 0 .762-.343.8-.343l-.038.304h.686l.305-2.095c.038-.914-.762-.952-1.029-.952zm.19 1.714c0 .114-.076.724-.533.724-.228 0-.304-.19-.304-.305 0-.19.114-.457.685-.457.115.038.115.038.153.038zm1.486 1.333c.229-1.257.267-2.285.8-2.095.077-.495.19-.686.267-.876h-.152c-.343 0-.61.457-.61.457l.076-.419h-.723l-.496 2.972h.838v-.04z" fill="#FFF"/><path d="M8.572 13.533c0 .457.266.648.61.648.266 0 .495-.077.57-.115l.115-.647c-.038 0-.114.038-.19.038-.267 0-.305-.153-.267-.229l.228-1.333h.42l.114-.724h-.381l.076-.457m.533 2.133c0 1.067.343 1.334.953 1.334.571 0 .8-.115.8-.115l.152-.723s-.419.19-.8.19c-.838 0-.686-.61-.686-.61h1.562s.115-.495.115-.685c0-.495-.267-1.105-1.105-1.105-.8-.076-.99.762-.99 1.714zm.953-1.104c.419 0 .495.495.495.533h-.99c0-.038.076-.533.495-.533zm4.838 2.323l.152-.838s-.38.19-.647.19c-.534 0-.762-.418-.762-.875 0-.915.457-1.41.99-1.41.381 0 .686.229.686.229l.114-.8s-.457-.19-.876-.19c-.876 0-1.371.761-1.371 2.209 0 .952.076 1.6.99 1.6.305 0 .724-.115.724-.115zM4.534 11.895s.343-.152.838-.152c.266 0 .495.038.495.266 0 .153-.038.19-.038.19h-.343c-.648 0-1.371.267-1.371 1.144 0 .685.457.838.723.838.534 0 .762-.343.8-.343l-.038.305h.686l.305-2.096c0-.876-.762-.914-1.067-.914m.572 1.638c0 .114-.458.724-.915.724-.228 0-.304-.19-.304-.305 0-.19.114-.457.685-.457.115.038.534.038.534.038zm.381 1.295s.228.077.876.077c.19 0 1.143.038 1.143-.991 0-.952-.915-.762-.915-1.143 0-.19.153-.266.42-.266.114 0 .533.038.533.038l.113-.686s-.266-.076-.723-.076c-.571 0-.762.228-.762.99 0 .876.572.8.572 1.143 0 .229-.267.267-.457.267m15.085-1.943s-.305-.381-.724-.381c-.685 0-.914.838-.914 1.828 0 .61-.076 1.258.572 1.258.457 0 .723-.305.723-.305l-.038.267h.762l.572-3.658m-.99 1.981c0 .42-.344.953-.763.953-.266 0-.419-.229-.419-.61 0-.61.267-.99.61-.99.266 0 .571.19.571.647zM1.41 14.104l.457-2.742.076 2.742h.534l.99-2.742-.419 2.742h.8l.609-3.657h-.952l-1.067 2.248-.038-2.248h-.419L.686 14.104zm11.009 0h.8c.229-1.257.267-2.285.8-2.095.077-.495.19-.686.267-.876h-.152c-.343 0-.61.457-.61.457l.076-.419m3.315.724s.342-.152.838-.152c.266 0 .495.038.495.266 0 .153-.038.19-.038.19h-.343c-.648 0-1.371.267-1.371 1.144 0 .685.457.838.723.838.534 0 .762-.343.8-.343l-.038.305h.686l.305-2.096c0-.876-.762-.914-1.067-.914m.572 1.638c0 .114-.458.724-.915.724-.228 0-.305-.19-.305-.305 0-.19.115-.457.686-.457.153.038.534.038.534.038zm.342 1.333h.8c.229-1.257.267-2.285.8-2.095.077-.495.19-.686.267-.876h-.152c-.343 0-.61.457-.61.457l.076-.419" fill="#DCE5E5"/></g></svg>